<?xml version="1.0" standalone="no"?>
<!DOCTYPE svg PUBLIC "-//W3C//DTD SVG 20010904//EN"
 "http://www.w3.org/TR/2001/REC-SVG-20010904/DTD/svg10.dtd">
<svg version="1.0" xmlns="http://www.w3.org/2000/svg"
 width="1000.000000pt" height="1000.000000pt" viewBox="0 0 1000.000000 1000.000000"
 preserveAspectRatio="xMidYMid meet">
<metadata>
Created by potrace 1.14, written by Peter Selinger 2001-2017
</metadata>
<g transform="translate(0.000000,1000.000000) scale(0.100000,-0.100000)"
fill="#000000" stroke="none">
<path d="M4350 7860 c0 -5 5 -10 11 -10 5 0 7 5 4 10 -3 6 -8 10 -11 10 -2 0
-4 -4 -4 -10z"/>
<path d="M8880 7860 c0 -5 5 -10 11 -10 5 0 7 5 4 10 -3 6 -8 10 -11 10 -2 0
-4 -4 -4 -10z"/>
<path d="M1241 7613 l-124 -4 6 -132 c4 -73 14 -285 22 -472 8 -187 17 -371
20 -410 6 -63 44 -265 256 -1345 33 -168 84 -433 115 -590 30 -157 99 -512
154 -790 54 -278 131 -669 170 -870 39 -201 81 -417 93 -480 l23 -115 721 -3
722 -2 5 52 c3 29 13 161 21 293 98 1521 167 2521 176 2530 6 6 12 6 18 0 4
-6 27 -194 50 -420 46 -445 64 -626 111 -1070 16 -159 41 -402 55 -540 14
-137 39 -380 55 -539 17 -158 30 -292 30 -297 0 -5 298 -9 713 -9 l713 0 27
173 c15 94 74 483 132 862 95 621 273 1783 465 3033 38 249 72 458 75 463 10
15 42 10 49 -7 3 -8 22 -110 41 -226 20 -116 38 -215 41 -220 3 -4 279 -8 615
-8 335 0 609 -2 609 -5 0 -2 -37 -73 -81 -157 -45 -84 -133 -252 -197 -373
-63 -121 -245 -467 -405 -770 -159 -302 -336 -638 -392 -745 -56 -107 -191
-364 -300 -570 -109 -206 -218 -415 -244 -464 l-46 -89 -3 -449 -3 -448 1326
0 c729 0 1325 1 1325 3 0 1 45 229 100 507 55 277 100 505 100 507 0 2 -344 3
-765 3 -561 0 -765 3 -765 11 0 11 35 75 378 694 164 297 303 547 447 810 48
88 109 198 135 245 27 47 132 238 235 425 104 187 261 473 351 635 89 162 167
313 173 335 6 22 24 236 41 475 16 239 33 463 36 498 l6 62 -1965 0 -1966 0
-5 -42 c-4 -24 -22 -218 -41 -433 -36 -408 -88 -998 -130 -1465 -14 -151 -40
-453 -60 -670 -40 -456 -44 -485 -55 -474 -8 9 -32 237 -150 1439 -28 281 -64
643 -80 805 -35 348 -80 816 -80 830 0 7 -258 10 -764 10 l-765 0 -5 -52 c-3
-29 -10 -147 -16 -263 -13 -270 -93 -1839 -121 -2360 -11 -220 -23 -402 -25
-404 -11 -12 -18 25 -44 231 -16 123 -42 327 -59 453 -16 127 -73 563 -126
970 -52 407 -116 892 -140 1078 -25 187 -45 343 -45 348 0 8 -680 9 -989 2z"/>
<path d="M2509 7575 c-3 -25 -1 -60 7 -103 9 -56 24 -24 24 51 0 44 -4 67 -9
58 -7 -11 -9 -11 -14 0 -4 9 -6 7 -8 -6z"/>
<path d="M4618 7494 c-3 -12 -1 -29 4 -38 5 -9 6 -21 3 -27 -9 -13 4 -109 15
-109 12 0 22 129 11 148 -6 9 -11 13 -12 7 0 -5 -4 1 -8 15 -7 24 -7 24 -13 4z"/>
<path d="M7546 3704 c-9 -23 -8 -24 14 -24 11 0 20 2 20 4 0 12 -13 36 -20 36
-4 0 -11 -7 -14 -16z"/>
<path d="M8610 3670 c0 -5 5 -10 10 -10 6 0 10 5 10 10 0 6 -4 10 -10 10 -5 0
-10 -4 -10 -10z"/>
<path d="M3670 2320 c-6 -12 -9 -26 -6 -33 3 -9 5 -9 5 0 1 7 8 10 16 7 10 -4
15 0 15 14 0 30 -17 36 -30 12z"/>
<path d="M3430 2149 c0 -5 5 -7 10 -4 6 3 10 8 10 11 0 2 -4 4 -10 4 -5 0 -10
-5 -10 -11z"/>
</g>
</svg>
