<svg width="25" height="24" viewBox="0 0 25 24" fill="none" xmlns="http://www.w3.org/2000/svg">
<g clip-path="url(#clip0)">
<path d="M24.213 19.376L14.3237 2.50163C13.9475 1.8548 13.2485 1.45312 12.5 1.45312C11.7515 1.45312 11.0525 1.8548 10.6776 2.50097L0.787016 19.376C0.598859 19.698 0.5 20.0647 0.5 20.4375C0.5 21.6007 1.44622 22.5469 2.60938 22.5469H22.3906C23.5538 22.5469 24.5 21.6007 24.5 20.4375C24.5 20.0647 24.4011 19.698 24.213 19.376ZM12.5 18.3281C12.1117 18.3281 11.7969 18.0133 11.7969 17.625C11.7969 17.2366 12.1117 16.9219 12.5 16.9219C12.8883 16.9219 13.2031 17.2366 13.2031 17.625C13.2031 18.0133 12.8883 18.3281 12.5 18.3281ZM13.2031 14.8125C13.2031 15.2011 12.8886 15.5156 12.5 15.5156C12.1114 15.5156 11.7969 15.2011 11.7969 14.8125L11.5 7.78125C11.5 7.39261 11.9766 7.07812 12.5 7.07812C13.043 7.07812 13.5 7.39261 13.5 7.78125L13.2031 14.8125Z" fill="white"/>
</g>
<defs>
<clipPath id="clip0">
<rect width="24" height="24" fill="white" transform="translate(0.5)"/>
</clipPath>
</defs>
</svg>
