<svg width="56" height="54" viewBox="0 0 56 54" fill="none" xmlns="http://www.w3.org/2000/svg">
<path d="M28 0.707031C12.5615 0.707031 0 12.5661 0 27.1412C0 41.7164 12.5615 53.5755 28 53.5755C43.4385 53.5755 56 41.7164 56 27.1412C56 12.5661 43.4385 0.707031 28 0.707031ZM14 20.5327C14 18.712 15.5715 17.2284 17.5 17.2284C19.4285 17.2284 21 18.712 21 20.5327C21 22.3533 19.4285 23.837 17.5 23.837C15.5715 23.837 14 22.3533 14 20.5327ZM40.3725 40.9267C40.0295 41.2505 39.5815 41.4091 39.1335 41.4091C38.6855 41.4091 38.2375 41.2472 37.8945 40.9267C32.6025 35.9306 23.3835 35.9306 18.095 40.9267C17.4125 41.571 16.303 41.571 15.6205 40.9267C14.938 40.2823 14.938 39.2349 15.6205 38.5906C18.9315 35.4713 23.324 33.7498 28 33.7498C32.676 33.7498 37.0685 35.4713 40.3725 38.5906C41.055 39.2349 41.055 40.2823 40.3725 40.9267ZM38.5 23.837C36.5715 23.837 35 22.3533 35 20.5327C35 18.712 36.5715 17.2284 38.5 17.2284C40.4285 17.2284 42 18.712 42 20.5327C42 22.3533 40.4285 23.837 38.5 23.837Z" fill="#F9A000"/>
</svg>
