<svg width="56" height="56" viewBox="0 0 56 56" fill="none" xmlns="http://www.w3.org/2000/svg">
<path d="M56 28C56 43.464 43.464 56 28 56C12.536 56 0 43.464 0 28C0 12.536 12.536 0 28 0C43.464 0 56 12.536 56 28Z" fill="#5770FF"/>
<path d="M37.1308 41.5471H37.1252V36.6993C37.1252 35.0595 36.0738 33.0125 34.7543 32.0394L29.6875 28.3167V27.6836L34.754 23.9608C36.0738 22.9878 37.1249 20.9408 37.1249 19.3009V14.4532H37.1306C38.0094 14.4532 38.7186 13.7384 38.7186 12.8595V12.5937C38.7186 11.7148 38.0094 11 37.1306 11H19.5948C18.7159 11 18 11.7148 18 12.5937V12.8592C18 13.7381 18.7154 14.4529 19.5942 14.4529L19.6015 19.3007C19.6015 20.9408 20.6339 22.9864 21.9564 23.9573L27.0314 27.6863V28.3134L21.9524 32.0427C20.6304 33.0136 19.5937 35.0592 19.5937 36.6993V41.5471H19.5948C18.7159 41.5471 18 42.2619 18 43.1408V43.4063C18 44.2852 18.7159 45 19.5948 45H37.1308C38.0097 45 38.7189 44.2852 38.7189 43.4063V43.1408C38.7189 42.2619 38.0097 41.5471 37.1308 41.5471ZM36.0625 41.5474H34.7343V37.381C34.7343 36.1702 33.9745 34.6585 32.9992 33.9402L28.6877 30.7604C28.5007 30.6219 28.2462 30.6217 28.059 30.7596L23.7247 33.9424C22.7484 34.6596 21.9842 36.1699 21.9842 37.381V41.5471H20.6561V36.6993C20.6561 35.4054 21.5414 33.6652 22.5844 32.8991L27.8779 29.011C28.0142 28.9109 28.0935 28.7519 28.0935 28.5827V27.4175C28.0935 27.2484 28.016 27.0894 27.88 26.9893L22.583 23.1011C21.5398 22.335 20.6561 20.5948 20.6561 19.3009V14.4532H36.0625V19.3009C36.0625 20.5954 35.1656 22.3377 34.1234 23.106L28.8493 26.9877C28.7136 27.0878 28.6248 27.2462 28.6248 27.4151V28.5852C28.6248 28.7538 28.705 28.9125 28.8407 29.0126L34.1237 32.8946C35.1653 33.6628 36.0625 35.4052 36.0625 36.6996V41.5474Z" fill="white"/>
<path d="M32.8326 21.4657C32.7608 21.2474 32.5571 21.1004 32.3277 21.1004L23.6797 21.0977C23.4501 21.0977 23.2466 21.2453 23.1749 21.4633C23.1034 21.6816 23.1803 21.9212 23.3654 22.0572L27.6999 25.2398C27.7935 25.3086 27.9039 25.3428 28.0142 25.3428C28.1249 25.3428 28.2358 25.3083 28.3294 25.2389L32.6432 22.0591C32.8277 21.9231 32.9044 21.6838 32.8326 21.4657Z" fill="white"/>
</svg>
