<svg width="56" height="40" viewBox="0 0 56 40" fill="none" xmlns="http://www.w3.org/2000/svg">
<path d="M28.0016 12.3691C23.7888 12.3691 20.3652 15.7927 20.3652 20.0055C20.3652 24.2182 23.7888 27.6418 28.0016 27.6418C32.2143 27.6418 35.6379 24.2182 35.6379 20.0055C35.6379 15.7927 32.2142 12.3691 28.0016 12.3691Z" fill="white"/>
<path d="M28.0001 0.908203C15.2727 0.908203 4.40368 8.82449 0 19.9991C4.40368 31.1736 15.2727 39.09 28.0001 39.09C40.74 39.09 51.5964 31.1736 56.0001 19.9991C51.5964 8.82449 40.74 0.908203 28.0001 0.908203ZM28.0001 32.7263C20.9746 32.7263 15.2727 27.0245 15.2727 19.999C15.2727 12.9735 20.9746 7.2718 28.0001 7.2718C35.0255 7.2718 40.7274 12.9737 40.7274 19.9991C40.7274 27.0246 35.0255 32.7263 28.0001 32.7263Z" fill="white"/>
</svg>
