<svg width="30" height="30" viewBox="0 0 30 30" fill="none" xmlns="http://www.w3.org/2000/svg">
<rect width="30" height="30" fill="#F7F8FC"/>
<g clip-path="url(#clip0)">
<path d="M17.0427 12.7969C16.8357 12.7969 16.668 12.9646 16.668 13.1716V20.2536C16.668 20.4604 16.8357 20.6283 17.0427 20.6283C17.2497 20.6283 17.4174 20.4604 17.4174 20.2536V13.1716C17.4174 12.9646 17.2497 12.7969 17.0427 12.7969Z" fill="#7D818B"/>
<path d="M12.6208 12.7969C12.4138 12.7969 12.2461 12.9646 12.2461 13.1716V20.2536C12.2461 20.4604 12.4138 20.6283 12.6208 20.6283C12.8278 20.6283 12.9955 20.4604 12.9955 20.2536V13.1716C12.9955 12.9646 12.8278 12.7969 12.6208 12.7969Z" fill="#7D818B"/>
<path d="M9.39821 11.7634V20.9954C9.39821 21.541 9.5983 22.0535 9.94783 22.4212C10.2958 22.7899 10.7799 22.9992 11.2867 23H18.3763C18.8831 22.9992 19.3673 22.7899 19.7151 22.4212C20.0646 22.0535 20.2647 21.541 20.2647 20.9954V11.7634C20.9595 11.5789 21.4098 10.9077 21.3168 10.1947C21.2237 9.4819 20.6165 8.94867 19.8975 8.94853H17.979V8.48014C17.9812 8.08626 17.8255 7.70804 17.5466 7.42979C17.2678 7.15169 16.889 6.99683 16.4951 7.00005H13.1678C12.7739 6.99683 12.3951 7.15169 12.1163 7.42979C11.8375 7.70804 11.6817 8.08626 11.6839 8.48014V8.94853H9.76546C9.04649 8.94867 8.4392 9.4819 8.34611 10.1947C8.25316 10.9077 8.7034 11.5789 9.39821 11.7634ZM18.3763 22.2506H11.2867C10.646 22.2506 10.1476 21.7003 10.1476 20.9954V11.7963H19.5153V20.9954C19.5153 21.7003 19.0169 22.2506 18.3763 22.2506ZM12.4333 8.48014C12.4309 8.28503 12.5076 8.09724 12.646 7.9595C12.7843 7.82177 12.9726 7.7461 13.1678 7.74946H16.4951C16.6904 7.7461 16.8786 7.82177 17.0169 7.9595C17.1554 8.09709 17.2321 8.28503 17.2296 8.48014V8.94853H12.4333V8.48014ZM9.76546 9.69794H19.8975C20.27 9.69794 20.572 9.9999 20.572 10.3724C20.572 10.7449 20.27 11.0469 19.8975 11.0469H9.76546C9.39294 11.0469 9.09098 10.7449 9.09098 10.3724C9.09098 9.9999 9.39294 9.69794 9.76546 9.69794Z" fill="#7D818B"/>
<path d="M14.8317 12.7969C14.6248 12.7969 14.457 12.9646 14.457 13.1716V20.2536C14.457 20.4604 14.6248 20.6283 14.8317 20.6283C15.0387 20.6283 15.2064 20.4604 15.2064 20.2536V13.1716C15.2064 12.9646 15.0387 12.7969 14.8317 12.7969Z" fill="#7D818B"/>
</g>
<defs>
<clipPath id="clip0">
<rect width="16" height="16" fill="white" transform="translate(7 7)"/>
</clipPath>
</defs>
</svg>
