<svg width="24" height="20" viewBox="0 0 24 20" fill="none" xmlns="http://www.w3.org/2000/svg">
<path d="M21.173 3.07395C22.2015 2.45908 22.971 1.49089 23.338 0.350167C22.3715 0.923609 21.3141 1.32756 20.2115 1.54455C18.6828 -0.0725954 16.2607 -0.466134 14.2986 0.583829C12.3365 1.63379 11.3202 3.86732 11.8176 6.03637C7.85881 5.83762 4.17053 3.96763 1.67052 0.89171C0.365817 3.14212 1.03255 6.01891 3.19419 7.46595C2.41252 7.44082 1.64818 7.22919 0.964911 6.84869C0.964911 6.86934 0.964911 6.88999 0.964911 6.91064C0.965363 9.25483 2.6175 11.2741 4.91519 11.7386C4.19015 11.9359 3.42963 11.9649 2.69165 11.8235C3.33783 13.8282 5.18545 15.2016 7.29133 15.2426C5.54718 16.6115 3.39322 17.3539 1.17602 17.3503C0.783024 17.3508 0.390336 17.3282 0 17.2826C2.25152 18.7294 4.87202 19.4973 7.54833 19.4946C11.2717 19.5202 14.85 18.0523 17.4828 15.4193C20.1156 12.7863 21.5832 9.20789 21.5573 5.4845C21.5573 5.2711 21.5523 5.05884 21.5424 4.84773C22.5067 4.15084 23.3389 3.28752 24 2.29835C23.1017 2.69654 22.1487 2.95798 21.173 3.07395Z" fill="#54ACEC"/>
</svg>
