<svg width="17" height="17" viewBox="0 0 17 17" fill="none" xmlns="http://www.w3.org/2000/svg">
<g clip-path="url(#clip0)">
<path d="M8.35287 0.857422C3.78472 0.857422 0.0683594 4.44624 0.0683594 8.85746C0.0683594 13.2687 3.78472 16.8574 8.35287 16.8574C12.921 16.8574 16.6374 13.2687 16.6374 8.85746C16.6373 4.44624 12.9209 0.857422 8.35287 0.857422ZM8.35287 15.7106C4.43962 15.7106 1.25592 12.6363 1.25592 8.85746C1.25592 5.07858 4.43954 2.00421 8.35287 2.00421C12.2662 2.00421 15.4498 5.0785 15.4498 8.85746C15.4497 12.6363 12.2661 15.7106 8.35287 15.7106Z" fill="#54ACEC"/>
<path d="M13.7926 10.7585H11.428C11.4824 10.1435 11.5107 9.50583 11.5107 8.85645C11.5107 8.2066 11.4827 7.56891 11.4283 6.95424H13.7926C14.1205 6.95424 14.3863 6.69751 14.3863 6.38085C14.3863 6.06418 14.1205 5.80745 13.7926 5.80745H11.2918C11.1571 4.9125 10.9628 4.08896 10.7138 3.3788C10.6085 3.07887 10.2718 2.91817 9.96085 3.0197C9.65026 3.1213 9.48377 3.44676 9.58898 3.74676C9.80077 4.35043 9.96964 5.04767 10.092 5.80745H6.61477C6.73448 5.06411 6.89876 4.3807 7.10389 3.78629C7.20761 3.48583 7.03945 3.16114 6.7283 3.06098C6.41701 2.96083 6.08093 3.12322 5.97721 3.42367C5.73582 4.12306 5.547 4.93131 5.41518 5.80745H2.91409C2.58617 5.80745 2.32031 6.06418 2.32031 6.38085C2.32031 6.69751 2.58617 6.95424 2.91409 6.95424H5.27877C5.22438 7.56922 5.19611 8.20691 5.19611 8.85645C5.19611 9.50621 5.22414 10.1439 5.27845 10.7585H2.91409C2.58617 10.7585 2.32031 11.0152 2.32031 11.3319C2.32031 11.6486 2.58617 11.9053 2.91409 11.9053H5.41494C5.54961 12.8003 5.7439 13.6239 5.99297 14.3339C6.07681 14.5729 6.30775 14.7235 6.55532 14.7235C6.6185 14.7235 6.6827 14.7138 6.74588 14.6931C7.05647 14.5915 7.22296 14.2661 7.11775 13.9661C6.90596 13.3625 6.73717 12.6652 6.61485 11.9054H10.0919C9.97217 12.6486 9.80789 13.332 9.60276 13.9266C9.49905 14.2271 9.6672 14.5518 9.97835 14.6518C10.0407 14.6719 10.1039 14.6814 10.1661 14.6814C10.4148 14.6814 10.6465 14.5294 10.7294 14.2891C10.9708 13.5895 11.1596 12.7814 11.2915 11.9054H13.7926C14.1206 11.9054 14.3864 11.6486 14.3864 11.332C14.3864 11.0153 14.1206 10.7585 13.7926 10.7585ZM6.47068 10.7585C6.41368 10.1474 6.38367 9.50965 6.38367 8.85645C6.38367 8.2037 6.41384 7.5657 6.47092 6.95424H10.2362C10.2932 7.5654 10.3233 8.20316 10.3233 8.85645C10.3233 9.50912 10.2931 10.147 10.236 10.7585H6.47068Z" fill="#54ACEC"/>
</g>
<defs>
<clipPath id="clip0">
<rect width="16.5689" height="16" fill="white" transform="translate(0.0683594 0.857422)"/>
</clipPath>
</defs>
</svg>
